<svg width="205" height="66" viewBox="0 0 205 66" fill="none" xmlns="http://www.w3.org/2000/svg">
<path d="M13.1328 41.57C12.9728 41.31 12.8928 41.09 12.8928 40.91C12.8928 40.65 13.0228 40.45 13.2828 40.31C13.4028 40.19 13.5628 40.13 13.7628 40.13C14.0028 40.13 14.2228 40.23 14.4228 40.43C15.6028 41.99 17.1728 42.77 19.1328 42.77C20.0928 42.77 20.9228 42.55 21.6228 42.11C22.3428 41.65 22.7028 40.99 22.7028 40.13C22.7028 39.29 22.3728 38.66 21.7128 38.24C21.0528 37.82 20.1328 37.46 18.9528 37.16C17.2928 36.74 15.9928 36.2 15.0528 35.54C14.1128 34.86 13.6428 33.87 13.6428 32.57C13.6428 31.75 13.8728 31.02 14.3328 30.38C14.7928 29.72 15.4128 29.21 16.1928 28.85C16.9928 28.49 17.8928 28.31 18.8928 28.31C19.7528 28.31 20.6128 28.48 21.4728 28.82C22.3528 29.14 23.1028 29.66 23.7228 30.38C23.9028 30.52 23.9928 30.72 23.9928 30.98C23.9928 31.22 23.8928 31.43 23.6928 31.61C23.5528 31.73 23.3728 31.79 23.1528 31.79C22.9528 31.79 22.7728 31.71 22.6128 31.55C22.1328 31.01 21.5628 30.6 20.9028 30.32C20.2428 30.04 19.5328 29.9 18.7728 29.9C17.8328 29.9 17.0228 30.12 16.3428 30.56C15.6828 31 15.3528 31.66 15.3528 32.54C15.3928 33.34 15.7528 33.95 16.4328 34.37C17.1328 34.79 18.1528 35.17 19.4928 35.51C20.5328 35.77 21.3928 36.06 22.0728 36.38C22.7528 36.7 23.3028 37.15 23.7228 37.73C24.1628 38.31 24.3828 39.08 24.3828 40.04C24.3828 41.34 23.8628 42.38 22.8228 43.16C21.7828 43.92 20.4928 44.3 18.9528 44.3C16.5128 44.3 14.5728 43.39 13.1328 41.57ZM39.5253 28.76C39.7853 28.76 39.9953 28.85 40.1553 29.03C40.3353 29.19 40.4253 29.4 40.4253 29.66V38.12C40.4253 40.08 39.8753 41.59 38.7753 42.65C37.6753 43.69 36.1553 44.21 34.2153 44.21C32.2953 44.21 30.7853 43.69 29.6853 42.65C28.6053 41.59 28.0653 40.08 28.0653 38.12V29.66C28.0653 29.4 28.1453 29.19 28.3053 29.03C28.4853 28.85 28.7053 28.76 28.9653 28.76C29.2253 28.76 29.4353 28.85 29.5953 29.03C29.7753 29.19 29.8653 29.4 29.8653 29.66V38.12C29.8653 39.56 30.2453 40.66 31.0053 41.42C31.7653 42.16 32.8353 42.53 34.2153 42.53C35.6153 42.53 36.6953 42.16 37.4553 41.42C38.2353 40.66 38.6253 39.56 38.6253 38.12V29.66C38.6253 29.4 38.7053 29.19 38.8653 29.03C39.0453 28.85 39.2653 28.76 39.5253 28.76ZM52.3754 28.31C54.2354 28.31 55.5954 28.86 56.4554 29.96C57.3354 31.04 57.7754 32.48 57.7754 34.28V43.1C57.7754 43.36 57.6854 43.58 57.5054 43.76C57.3254 43.92 57.1154 44 56.8754 44C56.6154 44 56.3954 43.92 56.2154 43.76C56.0554 43.58 55.9754 43.36 55.9754 43.1V34.37C55.9754 33.07 55.6454 32.02 54.9854 31.22C54.3454 30.4 53.3454 29.99 51.9854 29.99C51.1254 29.99 50.3054 30.19 49.5254 30.59C48.7654 30.99 48.1454 31.53 47.6654 32.21C47.1854 32.87 46.9454 33.59 46.9454 34.37V43.1C46.9454 43.36 46.8554 43.58 46.6754 43.76C46.5154 43.92 46.3054 44 46.0454 44C45.7854 44 45.5654 43.92 45.3854 43.76C45.2254 43.58 45.1454 43.36 45.1454 43.1V29.66C45.1454 29.4 45.2254 29.19 45.3854 29.03C45.5654 28.85 45.7854 28.76 46.0454 28.76C46.3054 28.76 46.5154 28.85 46.6754 29.03C46.8554 29.19 46.9454 29.4 46.9454 29.66V31.31C47.4854 30.45 48.2554 29.74 49.2554 29.18C50.2754 28.6 51.3154 28.31 52.3754 28.31ZM69.7191 28.31C71.5791 28.31 72.9391 28.86 73.7991 29.96C74.6791 31.04 75.1191 32.48 75.1191 34.28V43.1C75.1191 43.36 75.0291 43.58 74.8491 43.76C74.6691 43.92 74.4591 44 74.2191 44C73.9591 44 73.7391 43.92 73.5591 43.76C73.3991 43.58 73.3191 43.36 73.3191 43.1V34.37C73.3191 33.07 72.9891 32.02 72.3291 31.22C71.6891 30.4 70.6891 29.99 69.3291 29.99C68.4691 29.99 67.6491 30.19 66.8691 30.59C66.1091 30.99 65.4891 31.53 65.0091 32.21C64.5291 32.87 64.2891 33.59 64.2891 34.37V43.1C64.2891 43.36 64.1991 43.58 64.0191 43.76C63.8591 43.92 63.6491 44 63.3891 44C63.1291 44 62.9091 43.92 62.7291 43.76C62.5691 43.58 62.4891 43.36 62.4891 43.1V29.66C62.4891 29.4 62.5691 29.19 62.7291 29.03C62.9091 28.85 63.1291 28.76 63.3891 28.76C63.6491 28.76 63.8591 28.85 64.0191 29.03C64.1991 29.19 64.2891 29.4 64.2891 29.66V31.31C64.8291 30.45 65.5991 29.74 66.5991 29.18C67.6191 28.6 68.6591 28.31 69.7191 28.31ZM91.1164 28.4C91.3764 28.4 91.5864 28.49 91.7464 28.67C91.9264 28.83 92.0164 29.04 92.0164 29.3V42.53C92.0164 44.11 91.7064 45.46 91.0864 46.58C90.4664 47.7 89.6064 48.55 88.5064 49.13C87.4064 49.71 86.1664 50 84.7864 50C83.9464 50 83.1564 49.91 82.4164 49.73C81.6964 49.55 81.0964 49.31 80.6164 49.01C80.1964 48.75 79.9864 48.46 79.9864 48.14C79.9864 48.1 80.0064 48 80.0464 47.84C80.1064 47.64 80.2064 47.49 80.3464 47.39C80.4864 47.29 80.6364 47.24 80.7964 47.24C80.9164 47.24 81.0364 47.27 81.1564 47.33C82.4364 48.03 83.6564 48.38 84.8164 48.38C86.4764 48.38 87.7864 47.86 88.7464 46.82C89.7264 45.78 90.2164 44.36 90.2164 42.56V41.51C89.7164 42.35 88.9964 43.03 88.0564 43.55C87.1164 44.05 86.0964 44.3 84.9964 44.3C83.2564 44.3 81.9364 43.78 81.0364 42.74C80.1364 41.7 79.6864 40.29 79.6864 38.51V29.3C79.6864 29.04 79.7664 28.83 79.9264 28.67C80.1064 28.49 80.3264 28.4 80.5864 28.4C80.8464 28.4 81.0564 28.49 81.2164 28.67C81.3964 28.83 81.4864 29.04 81.4864 29.3V38.24C81.4864 39.68 81.7964 40.77 82.4164 41.51C83.0564 42.25 84.0464 42.62 85.3864 42.62C86.2064 42.62 86.9864 42.42 87.7264 42.02C88.4864 41.6 89.0864 41.06 89.5264 40.4C89.9864 39.72 90.2164 39 90.2164 38.24V29.3C90.2164 29.04 90.2964 28.83 90.4564 28.67C90.6364 28.49 90.8564 28.4 91.1164 28.4Z" fill="white"/>
<circle cx="118" cy="33" r="33" fill="#E68E0B"/>
<path d="M102.86 40.57C102.7 40.31 102.62 40.09 102.62 39.91C102.62 39.65 102.75 39.45 103.01 39.31C103.13 39.19 103.29 39.13 103.49 39.13C103.73 39.13 103.95 39.23 104.15 39.43C105.33 40.99 106.9 41.77 108.86 41.77C109.82 41.77 110.65 41.55 111.35 41.11C112.07 40.65 112.43 39.99 112.43 39.13C112.43 38.29 112.1 37.66 111.44 37.24C110.78 36.82 109.86 36.46 108.68 36.16C107.02 35.74 105.72 35.2 104.78 34.54C103.84 33.86 103.37 32.87 103.37 31.57C103.37 30.75 103.6 30.02 104.06 29.38C104.52 28.72 105.14 28.21 105.92 27.85C106.72 27.49 107.62 27.31 108.62 27.31C109.48 27.31 110.34 27.48 111.2 27.82C112.08 28.14 112.83 28.66 113.45 29.38C113.63 29.52 113.72 29.72 113.72 29.98C113.72 30.22 113.62 30.43 113.42 30.61C113.28 30.73 113.1 30.79 112.88 30.79C112.68 30.79 112.5 30.71 112.34 30.55C111.86 30.01 111.29 29.6 110.63 29.32C109.97 29.04 109.26 28.9 108.5 28.9C107.56 28.9 106.75 29.12 106.07 29.56C105.41 30 105.08 30.66 105.08 31.54C105.12 32.34 105.48 32.95 106.16 33.37C106.86 33.79 107.88 34.17 109.22 34.51C110.26 34.77 111.12 35.06 111.8 35.38C112.48 35.7 113.03 36.15 113.45 36.73C113.89 37.31 114.11 38.08 114.11 39.04C114.11 40.34 113.59 41.38 112.55 42.16C111.51 42.92 110.22 43.3 108.68 43.3C106.24 43.3 104.3 42.39 102.86 40.57ZM129.253 27.76C129.513 27.76 129.723 27.85 129.883 28.03C130.063 28.19 130.153 28.4 130.153 28.66V37.12C130.153 39.08 129.603 40.59 128.503 41.65C127.403 42.69 125.883 43.21 123.943 43.21C122.023 43.21 120.513 42.69 119.413 41.65C118.333 40.59 117.793 39.08 117.793 37.12V28.66C117.793 28.4 117.873 28.19 118.033 28.03C118.213 27.85 118.433 27.76 118.693 27.76C118.953 27.76 119.163 27.85 119.323 28.03C119.503 28.19 119.593 28.4 119.593 28.66V37.12C119.593 38.56 119.973 39.66 120.733 40.42C121.493 41.16 122.563 41.53 123.943 41.53C125.343 41.53 126.423 41.16 127.183 40.42C127.963 39.66 128.353 38.56 128.353 37.12V28.66C128.353 28.4 128.433 28.19 128.593 28.03C128.773 27.85 128.993 27.76 129.253 27.76ZM142.103 27.31C143.963 27.31 145.323 27.86 146.183 28.96C147.063 30.04 147.503 31.48 147.503 33.28V42.1C147.503 42.36 147.413 42.58 147.233 42.76C147.053 42.92 146.843 43 146.603 43C146.343 43 146.123 42.92 145.943 42.76C145.783 42.58 145.703 42.36 145.703 42.1V33.37C145.703 32.07 145.373 31.02 144.713 30.22C144.073 29.4 143.073 28.99 141.713 28.99C140.853 28.99 140.033 29.19 139.253 29.59C138.493 29.99 137.873 30.53 137.393 31.21C136.913 31.87 136.673 32.59 136.673 33.37V42.1C136.673 42.36 136.583 42.58 136.403 42.76C136.243 42.92 136.033 43 135.773 43C135.513 43 135.293 42.92 135.113 42.76C134.953 42.58 134.873 42.36 134.873 42.1V28.66C134.873 28.4 134.953 28.19 135.113 28.03C135.293 27.85 135.513 27.76 135.773 27.76C136.033 27.76 136.243 27.85 136.403 28.03C136.583 28.19 136.673 28.4 136.673 28.66V30.31C137.213 29.45 137.983 28.74 138.983 28.18C140.003 27.6 141.043 27.31 142.103 27.31ZM164.667 20.8C164.927 20.8 165.137 20.89 165.297 21.07C165.477 21.23 165.567 21.44 165.567 21.7V42.1C165.567 42.36 165.477 42.58 165.297 42.76C165.137 42.92 164.927 43 164.667 43C164.407 43 164.187 42.92 164.007 42.76C163.847 42.58 163.767 42.36 163.767 42.1V40C163.267 40.92 162.517 41.7 161.517 42.34C160.537 42.98 159.447 43.3 158.247 43.3C156.927 43.3 155.727 42.96 154.647 42.28C153.587 41.58 152.747 40.62 152.127 39.4C151.507 38.18 151.197 36.81 151.197 35.29C151.197 33.79 151.507 32.43 152.127 31.21C152.747 29.99 153.587 29.04 154.647 28.36C155.727 27.66 156.917 27.31 158.217 27.31C159.397 27.31 160.487 27.61 161.487 28.21C162.487 28.79 163.247 29.55 163.767 30.49V21.7C163.767 21.44 163.847 21.23 164.007 21.07C164.187 20.89 164.407 20.8 164.667 20.8ZM158.427 41.62C159.467 41.62 160.397 41.35 161.217 40.81C162.057 40.27 162.707 39.52 163.167 38.56C163.647 37.58 163.887 36.49 163.887 35.29C163.887 34.11 163.647 33.04 163.167 32.08C162.707 31.12 162.057 30.37 161.217 29.83C160.397 29.27 159.467 28.99 158.427 28.99C157.387 28.99 156.447 29.27 155.607 29.83C154.787 30.37 154.137 31.12 153.657 32.08C153.197 33.04 152.967 34.11 152.967 35.29C152.967 36.49 153.197 37.57 153.657 38.53C154.137 39.49 154.787 40.25 155.607 40.81C156.447 41.35 157.387 41.62 158.427 41.62ZM182.714 27.67C182.974 27.67 183.184 27.76 183.344 27.94C183.524 28.12 183.614 28.34 183.614 28.6V42.1C183.614 42.36 183.524 42.58 183.344 42.76C183.184 42.92 182.974 43 182.714 43C182.454 43 182.234 42.92 182.054 42.76C181.894 42.58 181.814 42.36 181.814 42.1V40.09C181.314 40.99 180.564 41.75 179.564 42.37C178.564 42.99 177.474 43.3 176.294 43.3C174.954 43.3 173.744 42.95 172.664 42.25C171.604 41.55 170.764 40.59 170.144 39.37C169.544 38.15 169.244 36.78 169.244 35.26C169.244 33.74 169.554 32.38 170.174 31.18C170.794 29.96 171.634 29.01 172.694 28.33C173.774 27.65 174.964 27.31 176.264 27.31C177.464 27.31 178.564 27.6 179.564 28.18C180.564 28.76 181.314 29.52 181.814 30.46V28.6C181.814 28.34 181.894 28.12 182.054 27.94C182.234 27.76 182.454 27.67 182.714 27.67ZM176.474 41.62C177.514 41.62 178.444 41.35 179.264 40.81C180.104 40.25 180.754 39.49 181.214 38.53C181.694 37.55 181.934 36.46 181.934 35.26C181.934 34.1 181.694 33.04 181.214 32.08C180.754 31.12 180.104 30.37 179.264 29.83C178.444 29.27 177.514 28.99 176.474 28.99C175.434 28.99 174.494 29.26 173.654 29.8C172.834 30.34 172.184 31.09 171.704 32.05C171.244 32.99 171.014 34.06 171.014 35.26C171.014 36.46 171.244 37.55 171.704 38.53C172.164 39.49 172.804 40.25 173.624 40.81C174.464 41.35 175.414 41.62 176.474 41.62ZM199.389 27.4C199.649 27.4 199.859 27.49 200.019 27.67C200.199 27.83 200.289 28.04 200.289 28.3V41.53C200.289 43.11 199.979 44.46 199.359 45.58C198.739 46.7 197.879 47.55 196.779 48.13C195.679 48.71 194.439 49 193.059 49C192.219 49 191.429 48.91 190.689 48.73C189.969 48.55 189.369 48.31 188.889 48.01C188.469 47.75 188.259 47.46 188.259 47.14C188.259 47.1 188.279 47 188.319 46.84C188.379 46.64 188.479 46.49 188.619 46.39C188.759 46.29 188.909 46.24 189.069 46.24C189.189 46.24 189.309 46.27 189.429 46.33C190.709 47.03 191.929 47.38 193.089 47.38C194.749 47.38 196.059 46.86 197.019 45.82C197.999 44.78 198.489 43.36 198.489 41.56V40.51C197.989 41.35 197.269 42.03 196.329 42.55C195.389 43.05 194.369 43.3 193.269 43.3C191.529 43.3 190.209 42.78 189.309 41.74C188.409 40.7 187.959 39.29 187.959 37.51V28.3C187.959 28.04 188.039 27.83 188.199 27.67C188.379 27.49 188.599 27.4 188.859 27.4C189.119 27.4 189.329 27.49 189.489 27.67C189.669 27.83 189.759 28.04 189.759 28.3V37.24C189.759 38.68 190.069 39.77 190.689 40.51C191.329 41.25 192.319 41.62 193.659 41.62C194.479 41.62 195.259 41.42 195.999 41.02C196.759 40.6 197.359 40.06 197.799 39.4C198.259 38.72 198.489 38 198.489 37.24V28.3C198.489 28.04 198.569 27.83 198.729 27.67C198.909 27.49 199.129 27.4 199.389 27.4Z" fill="white"/>
</svg>
